<?xml version="1.0" encoding="UTF-8"?>
<svg width="100pt" height="100pt" version="1.1" viewBox="0 0 100 100" xmlns="http://www.w3.org/2000/svg">
 <path d="m47.395 85.012-27.707-16c-0.80859-0.46484-1.3047-1.3281-1.3008-2.2617v-31.145l29.008 16.75zm2.6055-37.168 29.75-17.176-28.449-16.43c-0.80469-0.46875-1.7969-0.46875-2.6016 0l-28.449 16.43zm2.6055 4.5117v32.656l27.707-16c0.80859-0.46484 1.3047-1.3281 1.3008-2.2617v-31.145zm-40.543-28.812v-11.457h11.457v-0.003907c1.4414 0 2.6055-1.1641 2.6055-2.6016 0-1.4414-1.1641-2.6055-2.6055-2.6055h-14.062c-1.4375 0-2.6016 1.1641-2.6016 2.6055v14.062c0 1.4375 1.1641 2.6016 2.6016 2.6016 1.4414 0 2.6055-1.1641 2.6055-2.6016zm81.082 0v-14.086c0-0.6875-0.27344-1.3516-0.76172-1.8398-0.48828-0.48828-1.1523-0.76172-1.8398-0.76172h-14.086c-1.4375 0-2.6016 1.1641-2.6016 2.6016 0 1.4414 1.1641 2.6055 2.6016 2.6055h11.457v11.457h0.003907c0 1.4414 1.1641 2.6055 2.6016 2.6055 1.4414 0 2.6055-1.1641 2.6055-2.6055zm-67 67c0-0.69141-0.27344-1.3555-0.76172-1.8438-0.48828-0.48828-1.1523-0.76172-1.8398-0.76172h-11.457v-11.457h-0.003907c0-1.4414-1.1641-2.6055-2.6016-2.6055-1.4414 0-2.6055 1.1641-2.6055 2.6055v14.062c0 0.6875 0.27344 1.3516 0.76172 1.8398 0.48828 0.48828 1.1523 0.76172 1.8438 0.76172h14.062c0.6875 0 1.3516-0.27344 1.8398-0.76172 0.48828-0.48828 0.76172-1.1523 0.76172-1.8398zm67 0v-14.086c0-1.4375-1.1641-2.6016-2.6016-2.6016-1.4414 0-2.6055 1.1641-2.6055 2.6016v11.457h-11.457v0.003907c-1.4414 0-2.6055 1.1641-2.6055 2.6016 0 1.4414 1.1641 2.6055 2.6055 2.6055h14.062c1.4297 0 2.5898-1.1523 2.6016-2.582z"/>
</svg>
